<svg xmlns="http://www.w3.org/2000/svg" width="1200" height="690" viewBox="0 0 1200 690" role="img" aria-labelledby="title desc">
  <title id="title">Surge Relay GitHub settings</title><desc id="desc">Illustration showing the repository address, GitHub token and Cloudflare public address fields in Surge Relay.</desc>
  <defs><filter id="s"><feDropShadow dy="14" stdDeviation="20" flood-color="#23395d" flood-opacity=".15"/></filter><linearGradient id="b" x1="0" y1="0" x2="1" y2="1"><stop stop-color="#f6f8ff"/><stop offset="1" stop-color="#eef5ff"/></linearGradient></defs><rect width="1200" height="690" rx="32" fill="url(#b)"/><rect x="88" y="48" width="1024" height="594" rx="28" fill="#fff" filter="url(#s)"/><rect x="88" y="48" width="250" height="594" rx="28" fill="#f4f5f7"/><circle cx="126" cy="84" r="9" fill="#ff5f57"/><circle cx="154" cy="84" r="9" fill="#febc2e"/><circle cx="182" cy="84" r="9" fill="#28c840"/>
  <g font-family="-apple-system,BlinkMacSystemFont,'Segoe UI',sans-serif"><text x="132" y="172" font-size="18" fill="#222">⚙  通用</text><text x="132" y="220" font-size="18" fill="#222">◎  Web 管理</text><text x="132" y="268" font-size="18" fill="#222">Y  Script Hub</text><rect x="112" y="292" width="202" height="48" rx="12" fill="#0a84ff"/><text x="132" y="322" font-size="18" font-weight="700" fill="#fff">↻  同步</text>
  <text x="382" y="102" font-size="25" font-weight="700" fill="#222">同步</text><text x="382" y="160" font-size="18" font-weight="650" fill="#222">同步方式</text><rect x="382" y="178" width="670" height="58" rx="12" fill="#f2f2f4"/><rect x="720" y="186" width="324" height="42" rx="10" fill="#0a84ff"/><text x="882" y="213" text-anchor="middle" font-size="16" font-weight="700" fill="#fff">GitHub 私有仓库</text>
  <text x="382" y="282" font-size="18" font-weight="650" fill="#222">GitHub 私有仓库</text><rect x="382" y="300" width="670" height="136" rx="14" fill="#f4f4f6"/><text x="406" y="335" font-size="14" fill="#60646c">仓库地址</text><text x="1030" y="335" text-anchor="end" font-size="15" fill="#222">https://github.com/your-name/Surge-Relay</text><line x1="406" y1="352" x2="1030" y2="352" stroke="#d8d8dc"/><text x="406" y="397" font-size="14" fill="#60646c">GitHub Token</text><text x="1030" y="397" text-anchor="end" font-size="18" letter-spacing="3" fill="#222">••••••••••••••••••••</text>
  <text x="382" y="480" font-size="18" font-weight="650" fill="#222">Cloudflare</text><rect x="382" y="498" width="670" height="74" rx="14" fill="#f4f4f6"/><text x="406" y="542" font-size="14" fill="#60646c">公共地址</text><text x="1030" y="542" text-anchor="end" font-size="15" fill="#222">https://surge-relay.you.workers.dev</text>
  <rect x="790" y="590" width="262" height="46" rx="23" fill="#dcebff" stroke="#80bfff"/><text x="921" y="619" text-anchor="middle" font-size="16" font-weight="700" fill="#0066cc">验证并切换到 GitHub</text></g>
</svg>
